<svg xmlns="http://www.w3.org/2000/svg" width="215" height="80" viewBox="0 0 215 80">
    <g fill="none" fill-rule="evenodd">
        <path fill="#495266"
              d="M128.254 60.586a28.42 28.42 0 0 0 .755-6.513c0-13.234-9.185-24.273-21.507-27.05l13.166-24.68c12.7 4.613 22.408 15.538 25.433 28.975.405 3.155.29 6.398-.468 9.61-2.092 8.997-8.69 15.947-17.38 19.658"/>
        <path fill="#6AC3CA"
              d="M106.498 52.674c-5.538 10.15-8.742 16.259-13.436 24.983a38.482 38.482 0 0 1-7.897-3.954c-2.652-1.803-5.217-3.986-7.607-6.4-3.061-3.286-5.509-6.952-7.315-11.111l-.06-.174.031-.057a2.661 2.661 0 0 1-.146-.465c-.903-3.404-1.895-9.424-1.109-14.048.089-.38.175-.785.263-1.193 2.07-8.028 7.519-14.484 14.834-18.498a28.87 28.87 0 0 0-.174 3.199c0 13.67 9.706 25.07 22.616 27.718"/>
        <path fill="#1D2636"
              d="M106.513 62.644l-8.718 16.31c.667.145 1.334.29 2.033.436a55.54 55.54 0 0 0 7.5.61C129.268 79.826 147 61.977 147 39.967c0-3.051-.322-5.988-.96-8.837.407 3.14.29 6.368-.465 9.564-3.663 15.554-20.811 24.973-39.062 21.95"/>
        <path fill="#38AAAB"
              d="M116.205 1.047l-8.986 16.446c-17.886-2.036-33.94 7.538-37.865 22.792-1.307 5.034.03 12.457 1.018 15.95-2.065-4.743-3.315-10.13-3.372-15.63.114-6.607 1.657-13.333 4.71-19.386C80.29 5.15 98.582-3.056 116.205 1.047"/>
        <path fill="#354448"
              d="M39.005 49.869V23.718c0-2.47.166-5.197.498-8.182L14.627 49.869h24.378zm21.995 0v7.906c0 .737-.24 1.373-.72 1.907-.48.535-1.164.802-2.05.802h-7.314V80H39.005V60.484H5.208a3.749 3.749 0 0 1-2.438-.857c-.702-.571-1.145-1.281-1.33-2.129L0 50.588 37.952 0h12.964v49.869H61zM193.005 49.869V23.718c0-2.47.166-5.197.498-8.182l-24.876 34.333h24.378zm21.995 0v7.906c0 .737-.24 1.373-.72 1.907-.48.535-1.164.802-2.05.802h-7.314V80h-11.911V60.484h-33.797a3.749 3.749 0 0 1-2.438-.857c-.702-.571-1.145-1.281-1.33-2.129l-1.44-6.91L191.952 0h12.964v49.869H215z"/>
    </g>
</svg>
