<?xml version="1.0" encoding="utf-8"?>
<!-- Generator: Adobe Illustrator 17.1.0, SVG Export Plug-In . SVG Version: 6.00 Build 0)  -->
<!DOCTYPE svg PUBLIC "-//W3C//DTD SVG 1.1//EN" "http://www.w3.org/Graphics/SVG/1.1/DTD/svg11.dtd">
<svg version="1.1" id="Слой_1" xmlns="http://www.w3.org/2000/svg" xmlns:xlink="http://www.w3.org/1999/xlink" width="128px" height="50px" x="0px" y="0px"
	 viewBox="16 9.3 126 45.5" enable-background="new 16 9.3 126 45.5" xml:space="preserve">
<g>
	<path fill="#2C3549" d="M30.3,48.9c0,0.9-0.1,1.6-0.4,2.3c-0.3,0.7-0.7,1.3-1.2,1.8c-0.5,0.5-1.1,0.9-1.8,1.2
		c-0.7,0.3-1.5,0.4-2.4,0.4h-4.4V43.1h4.4c0.9,0,1.6,0.1,2.4,0.4c0.7,0.3,1.3,0.7,1.8,1.2c0.5,0.5,0.9,1.1,1.2,1.8
		C30.2,47.3,30.3,48,30.3,48.9z M28.4,48.9c0-0.7-0.1-1.3-0.3-1.8c-0.2-0.5-0.4-0.9-0.8-1.3c-0.3-0.4-0.8-0.7-1.2-0.8
		c-0.5-0.2-1.1-0.3-1.6-0.3h-2.5v8.5h2.5c0.6,0,1.1-0.1,1.6-0.3c0.5-0.2,0.9-0.5,1.2-0.8c0.3-0.4,0.6-0.8,0.8-1.3
		C28.3,50.2,28.4,49.6,28.4,48.9z M68,48.9c0,0.9-0.1,1.6-0.4,2.4c-0.3,0.7-0.7,1.3-1.2,1.9c-0.5,0.5-1.1,0.9-1.8,1.2
		c-0.7,0.3-1.5,0.4-2.4,0.4c-0.9,0-1.6-0.1-2.3-0.4c-0.7-0.3-1.3-0.7-1.8-1.2c-0.5-0.5-0.9-1.2-1.2-1.9c-0.3-0.8-0.4-1.6-0.4-2.4
		c0-0.9,0.1-1.6,0.4-2.4s0.7-1.3,1.2-1.9c0.5-0.5,1.1-0.9,1.8-1.2c0.7-0.3,1.5-0.4,2.3-0.4c0.9,0,1.6,0.1,2.4,0.4
		c0.7,0.3,1.3,0.7,1.8,1.2c0.5,0.5,0.9,1.2,1.2,1.9C67.8,47.2,68,48,68,48.9z M66.1,48.9c0-0.7-0.1-1.3-0.3-1.8
		c-0.2-0.5-0.4-1-0.8-1.3c-0.3-0.4-0.7-0.7-1.2-0.8c-0.5-0.2-1.1-0.3-1.6-0.3c-0.5,0-1.1,0.1-1.6,0.3c-0.5,0.2-0.9,0.5-1.2,0.8
		c-0.3,0.4-0.6,0.8-0.8,1.3c-0.2,0.5-0.3,1.1-0.3,1.8c0,0.7,0.1,1.3,0.3,1.8c0.2,0.5,0.4,1,0.8,1.3c0.3,0.4,0.7,0.6,1.2,0.8
		c0.5,0.2,1,0.3,1.6,0.3c0.6,0,1.1-0.1,1.6-0.3c0.5-0.2,0.9-0.5,1.2-0.8c0.3-0.4,0.6-0.8,0.8-1.3C66,50.2,66.1,49.6,66.1,48.9z
		 M102.8,52.1c0.1,0,0.2,0,0.3,0.1l0.7,0.8c-0.5,0.6-1.1,1-1.7,1.3c-0.7,0.3-1.5,0.5-2.4,0.5c-0.8,0-1.6-0.1-2.3-0.4
		c-0.7-0.3-1.3-0.7-1.7-1.2c-0.5-0.5-0.8-1.1-1.1-1.9c-0.3-0.7-0.4-1.5-0.4-2.4s0.1-1.7,0.4-2.4c0.3-0.7,0.7-1.3,1.2-1.9
		c0.5-0.5,1.1-0.9,1.8-1.2c0.7-0.3,1.5-0.4,2.3-0.4c0.8,0,1.6,0.1,2.2,0.4c0.6,0.3,1.2,0.6,1.7,1.1l-0.6,0.9c0,0.1-0.1,0.1-0.2,0.2
		c-0.1,0-0.2,0.1-0.2,0.1c-0.1,0-0.2,0-0.4-0.1c-0.2-0.1-0.3-0.2-0.5-0.3c-0.2-0.1-0.5-0.2-0.8-0.3c-0.3-0.1-0.7-0.1-1.2-0.1
		c-0.6,0-1.1,0.1-1.5,0.3c-0.5,0.2-0.9,0.5-1.2,0.8c-0.3,0.4-0.6,0.8-0.8,1.3c-0.2,0.5-0.3,1.1-0.3,1.8c0,0.7,0.1,1.3,0.3,1.8
		c0.2,0.5,0.5,1,0.8,1.3s0.7,0.6,1.2,0.8c0.5,0.2,0.9,0.3,1.5,0.3c0.3,0,0.6,0,0.9-0.1c0.5-0.1,0.9-0.2,1.3-0.5
		c0.2-0.1,0.4-0.3,0.6-0.4C102.6,52.1,102.7,52.1,102.8,52.1L102.8,52.1z M136.2,45.1c0,0.1-0.1,0.2-0.2,0.2c-0.1,0-0.2,0.1-0.2,0.1
		c-0.1,0-0.2-0.1-0.3-0.1c-0.2-0.1-0.3-0.2-0.5-0.3c-0.2-0.1-0.4-0.2-0.7-0.3c-0.3-0.1-0.6-0.1-0.9-0.1c-0.3,0-0.6,0-0.8,0.1
		c-0.2,0.1-0.4,0.2-0.6,0.3c-0.2,0.1-0.3,0.3-0.4,0.5c-0.1,0.2-0.1,0.4-0.1,0.6c0,0.3,0.1,0.5,0.2,0.7s0.4,0.4,0.6,0.5
		s0.5,0.3,0.9,0.4s0.7,0.2,1,0.3s0.7,0.3,1,0.4c0.3,0.2,0.6,0.3,0.9,0.6c0.3,0.2,0.5,0.5,0.6,0.8s0.2,0.7,0.2,1.2
		c0,0.5-0.1,1-0.3,1.4c-0.2,0.4-0.4,0.8-0.8,1.2c-0.4,0.3-0.8,0.6-1.2,0.8c-0.5,0.2-1,0.3-1.7,0.3c-0.4,0-0.7,0-1.1-0.1
		c-0.3-0.1-0.7-0.2-1-0.3c-0.3-0.1-0.6-0.3-0.9-0.5c-0.3-0.2-0.5-0.4-0.7-0.6l0.5-0.9c0-0.1,0.1-0.1,0.2-0.2c0.1,0,0.2-0.1,0.2-0.1
		c0.1,0,0.3,0.1,0.4,0.2c0.1,0.1,0.3,0.2,0.5,0.4c0.2,0.1,0.5,0.3,0.8,0.4c0.3,0.1,0.7,0.2,1.1,0.2c0.7,0,1.2-0.2,1.6-0.5
		c0.4-0.3,0.6-0.8,0.6-1.4c0-0.3-0.1-0.6-0.2-0.8c-0.2-0.2-0.4-0.4-0.6-0.5c-0.3-0.1-0.6-0.3-0.9-0.4c-0.3-0.1-0.7-0.2-1-0.3
		c-0.3-0.1-0.7-0.2-1-0.4c-0.3-0.1-0.6-0.3-0.9-0.6c-0.3-0.2-0.5-0.5-0.6-0.9c-0.2-0.3-0.2-0.8-0.2-1.3c0-0.8,0.3-1.7,1-2.2
		c0.3-0.3,0.7-0.6,1.2-0.7c0.5-0.2,1-0.3,1.6-0.3c0.7,0,1.3,0.1,1.8,0.3c0.5,0.2,1,0.5,1.4,0.9L136.2,45.1L136.2,45.1z"/>
	<path fill="#4BBABB" d="M50.2,9.3L38.8,29.1h9.7v-3.6h-3.6l5.3-9.1l5.3,9.1h-3.4v3.6h9.5L50.2,9.3z"/>
	<path fill="#1D2636" d="M91.4,9.3v19.8h4.2V18.1l4.9,3.9V22l5-3.9v11h4.2V9.4l-9.2,7.2v0L91.4,9.3z M73.1,16.3l-6.9-6.9l-3,3
		l7.8,7.8v9h4.2v-9l7.8-7.8l-3-3L73.1,16.3z"/>
	<g transform="translate(21 9.21)">
		<defs>
			<filter id="Adobe_OpacityMaskFilter" filterUnits="userSpaceOnUse" x="-0.8" y="0.2" width="15.9" height="19.8">
				<feColorMatrix  type="matrix" values="1 0 0 0 0  0 1 0 0 0  0 0 1 0 0  0 0 0 1 0"/>
			</filter>
		</defs>
		<mask maskUnits="userSpaceOnUse" x="-0.8" y="0.2" width="15.9" height="19.8" id="b">
			<g filter="url(#Adobe_OpacityMaskFilter)">
				<path id="a" fill="#FFFFFF" d="M-0.8,0.2v19.8h15.9V0.2H-0.8z"/>
			</g>
		</mask>
		<path mask="url(#b)" fill="#1D2636" d="M3.5,4.4v3.5h5.7c0.5,0,0.9-0.2,1.2-0.5c0.3-0.3,0.5-0.8,0.5-1.3c0-0.5-0.2-0.9-0.5-1.3
			C10,4.6,9.6,4.4,9.1,4.4C9.1,4.4,3.5,4.4,3.5,4.4z M-0.8,0.2h9.9c1.7,0,3.1,0.6,4.2,1.8c1.2,1.2,1.8,2.6,1.8,4.2s-0.6,3.1-1.8,4.2
			c-1.2,1.2-2.6,1.8-4.2,1.8H3.5v7.8h-4.3C-0.8,19.9-0.8,0.2-0.8,0.2z"/>
	</g>
	<path fill="#495266" d="M133.2,24.3c0.1-0.5,0.2-1.1,0.2-1.6c0-3.3-2.3-6-5.3-6.7l3.3-6.1c3.2,1.2,5.6,3.8,6.3,7.1
		c0.1,0.8,0.1,1.6-0.1,2.4C137,21.6,135.4,23.3,133.2,24.3"/>
	<path fill="#6AC3CA" d="M127.8,22.3c-1.4,2.5-2.2,4-3.3,6.2c-0.7-0.2-1.3-0.6-2-1c-0.7-0.5-1.3-1-1.9-1.6c-0.8-0.8-1.4-1.7-1.8-2.8
		l0,0l0,0c0,0,0-0.1,0-0.1c-0.2-0.8-0.5-2.3-0.3-3.5c0-0.1,0-0.2,0.1-0.3c0.5-2,1.9-3.6,3.7-4.6c0,0.3,0,0.5,0,0.8
		C122.2,18.9,124.6,21.7,127.8,22.3"/>
	<g transform="translate(126.025 16.926)">
		<defs>
			<filter id="Adobe_OpacityMaskFilter_1_" filterUnits="userSpaceOnUse" x="-0.3" y="0.1" width="12.2" height="12.1">
				<feColorMatrix  type="matrix" values="1 0 0 0 0  0 1 0 0 0  0 0 1 0 0  0 0 0 1 0"/>
			</filter>
		</defs>
		<mask maskUnits="userSpaceOnUse" x="-0.3" y="0.1" width="12.2" height="12.1" id="d">
			<g filter="url(#Adobe_OpacityMaskFilter_1_)">
				<path id="c" fill="#FFFFFF" d="M11.9,12.2V0.1H-0.3v12.1L11.9,12.2z"/>
			</g>
		</mask>
		<path mask="url(#d)" fill="#1D2636" d="M1.8,7.9l-2.2,4c0.2,0,0.3,0.1,0.5,0.1c0.6,0.1,1.3,0.1,1.9,0.2c5.4,0,9.8-4.5,9.8-9.9
			c0-0.8-0.1-1.5-0.2-2.2c0.1,0.8,0.1,1.6-0.1,2.4C10.6,6.3,6.3,8.7,1.8,7.9"/>
	</g>
	<g transform="translate(118.293 9.21)">
		<defs>
			<filter id="Adobe_OpacityMaskFilter_2_" filterUnits="userSpaceOnUse" x="-0.3" y="0.1" width="12.2" height="13.9">
				<feColorMatrix  type="matrix" values="1 0 0 0 0  0 1 0 0 0  0 0 1 0 0  0 0 0 1 0"/>
			</filter>
		</defs>
		<mask maskUnits="userSpaceOnUse" x="-0.3" y="0.1" width="12.2" height="13.9" id="f">
			<g filter="url(#Adobe_OpacityMaskFilter_2_)">
				<path id="e" fill="#FFFFFF" d="M11.9,0.1H-0.3V14h12.2V0.1z"/>
			</g>
		</mask>
		<path mask="url(#f)" fill="#38AAAB" d="M11.9,0.4L9.7,4.4c-4.4-0.5-8.4,1.9-9.4,5.6c-0.3,1.2,0,3.1,0.3,3.9
			c-0.5-1.2-0.8-2.5-0.8-3.9c0-1.7,0.4-3.3,1.2-4.8C3,1.4,7.6-0.7,11.9,0.4"/>
	</g>
</g>
</svg>
