<svg xmlns="http://www.w3.org/2000/svg" width="24" height="24" viewBox="0 0 24 24">
    <g fill="#26C6DA" fill-rule="evenodd">
        <path fill-rule="nonzero" d="M18.025 3.78v16.432c0 .974-.771 1.77-1.728 1.77H7.728c-.956 0-1.728-.796-1.728-1.77V3.78c0-.975.772-1.77 1.728-1.77h8.57c.956 0 1.727.795 1.727 1.77zm-.75 0c0-.566-.44-1.02-.978-1.02H7.728c-.537 0-.978.454-.978 1.02v16.432c0 .565.441 1.02.978 1.02h8.57c.536 0 .977-.455.977-1.02V3.78z"/>
        <path d="M12.013 19.154a.59.59 0 0 1 .582.597.59.59 0 0 1-.582.598.59.59 0 0 1-.583-.598.59.59 0 0 1 .583-.597z"/>
        <path fill-rule="nonzero" d="M16.29 9.62v3.303c0 1.117-.887 2.027-1.985 2.027H9.899c-1.098 0-1.985-.91-1.985-2.027V9.62c0-1.117.887-2.027 1.985-2.027h4.406c1.098 0 1.985.91 1.985 2.027zm-.75 0c0-.707-.556-1.277-1.235-1.277H9.899c-.68 0-1.235.57-1.235 1.277v3.303c0 .707.556 1.277 1.235 1.277h4.406c.68 0 1.235-.57 1.235-1.277V9.62zM6.375 4.88H17.55v-.75H6.375zM6.425 18.51H17.6v-.75H6.425z"/>
        <path fill-rule="nonzero" d="M10.26 10.738h1.166a.375.375 0 0 0 0-.75H10.26a.375.375 0 1 0 0 .75zM10.26 12.555h.21a.375.375 0 1 0 0-.75h-.21a.375.375 0 1 0 0 .75zM13.42 10.738h.668a.375.375 0 0 0 0-.75h-.668a.375.375 0 1 0 0 .75zM12.299 12.555h1.79a.375.375 0 1 0 0-.75h-1.79a.375.375 0 1 0 0 .75z"/>
    </g>
</svg>
