<svg xmlns="http://www.w3.org/2000/svg" width="24" height="24" viewBox="0 0 24 24">
    <g fill="#26C6DA" fill-rule="nonzero">
        <path d="M19.464 10.977v4.707a.286.286 0 0 1-.286.285H4.286A.286.286 0 0 1 4 15.684v-4.707c0-1.025.843-1.855 1.88-1.855h11.704c1.036 0 1.88.83 1.88 1.855zm-.572 0c0-.707-.585-1.283-1.308-1.283H5.88c-.723 0-1.309.576-1.309 1.283v4.421h14.321v-4.421z"/>
        <path d="M11.103 7.813v1.595a.286.286 0 0 1-.285.286H5.88a.286.286 0 0 1-.286-.286V7.813c0-.452.37-.817.826-.817h3.858c.454 0 .825.365.825.817zm-.571 0a.25.25 0 0 0-.254-.246H6.42a.25.25 0 0 0-.255.246v1.31h4.367v-1.31zM17.87 7.813v1.595a.286.286 0 0 1-.286.286h-4.938a.286.286 0 0 1-.286-.286V7.813c0-.452.371-.817.826-.817h3.858c.455 0 .826.365.826.817zm-.572 0a.25.25 0 0 0-.254-.246h-3.858a.25.25 0 0 0-.254.246v1.31h4.366v-1.31z"/>
    </g>
</svg>
