<svg xmlns="http://www.w3.org/2000/svg" width="64" height="64" viewBox="0 0 64 64">
    <g fill="#26C6DA" fill-rule="nonzero">
        <path d="M42.964 45.318a.938.938 0 0 0-1.086 1.528L44.77 48.9a.939.939 0 0 0 1.201-.097l4.09-4.025a.936.936 0 1 0-1.315-1.335l-3.531 3.474-2.252-1.598z"/>
        <path d="M45.684 38.662c-3.683 0-6.673 2.987-6.673 6.664 0 3.678 2.99 6.664 6.673 6.664s6.674-2.986 6.674-6.664c0-3.677-2.99-6.664-6.674-6.664zm0-1.874c4.72 0 8.55 3.826 8.55 8.538 0 4.713-3.83 8.538-8.55 8.538-4.719 0-8.55-3.825-8.55-8.538 0-4.712 3.831-8.538 8.55-8.538zM30.908 21.341a5.523 5.523 0 0 0-5.524 5.516 5.523 5.523 0 0 0 5.524 5.516 5.523 5.523 0 0 0 5.524-5.516 5.523 5.523 0 0 0-5.524-5.516zm0-1.874c4.085 0 7.4 3.31 7.4 7.39s-3.315 7.39-7.4 7.39c-4.084 0-7.4-3.31-7.4-7.39s3.316-7.39 7.4-7.39z"/>
        <path d="M39.234 49.073a19.947 19.947 0 0 1-8.318 1.804c-11.049 0-20.02-8.958-20.02-19.991s8.971-19.991 20.02-19.991 20.02 8.958 20.02 19.99c0 2.769-.565 5.458-1.645 7.943a.937.937 0 1 0 1.721.746 21.75 21.75 0 0 0 1.8-8.688C52.812 18.817 43 9.02 30.916 9.02S9.02 18.817 9.02 30.886c0 12.068 9.811 21.865 21.896 21.865 3.18 0 6.267-.68 9.099-1.974a.937.937 0 1 0-.781-1.704z"/>
        <path d="M41.48 38.715a16.725 16.725 0 0 0-10.572-3.744A16.783 16.783 0 0 0 15.38 45.37a.937.937 0 1 0 1.735.712 14.907 14.907 0 0 1 13.793-9.236c3.47 0 6.754 1.186 9.39 3.325a.939.939 0 0 0 1.183-1.455z"/>
    </g>
</svg>
