<svg xmlns="http://www.w3.org/2000/svg" width="64" height="64" viewBox="0 0 64 64">
    <g fill="none" fill-rule="evenodd">
        <path stroke="#26C6DA" stroke-linecap="round" stroke-linejoin="round" stroke-width="2" d="M51.142 11v41.064M31.655 11.201v40.863M12.645 11.201v40.863"/>
        <path fill="#26C6DA" d="M12.645 15.015a4.564 4.564 0 0 1 4.562 4.561 4.564 4.564 0 0 1-4.562 4.562 4.564 4.564 0 0 1-4.562-4.562 4.564 4.564 0 0 1 4.562-4.561z"/>
        <path fill="#26C6DA" d="M12.763 15.016l.117.005.116.007.115.01.115.013.113.016.113.019.112.021.11.024.11.027.11.03.107.032.107.034.105.038.104.04.103.041.102.045.1.047.1.049.097.051.096.054.095.056.093.059.092.06.09.063.089.064.087.067.085.069.084.07.082.073.08.075.078.076.076.079.075.08.073.082.07.083.07.086.066.087.065.088.062.09.06.092.059.094.056.095.054.096.051.097.05.1.047.1.044.101.042.103.04.105.037.105.035.107.032.107.03.109.026.11.024.11.021.112.02.113.015.114.013.114.01.116.008.116.004.117.002.117-.002.118-.004.117-.007.116-.01.116-.014.114-.016.114-.018.112-.022.112-.024.111-.027.11-.03.109-.031.107-.035.107-.037.105-.04.104-.042.103-.044.102-.047.1-.05.1-.051.097-.054.096-.056.095-.058.093-.06.092-.063.09-.065.089-.067.087-.068.085-.071.084-.073.082-.074.08-.077.078-.078.077-.08.074-.082.073-.084.07-.085.07-.087.066-.089.065-.09.063-.092.06-.093.058-.095.056-.096.054-.098.052-.099.049-.1.047-.102.044-.103.043-.104.04-.105.036-.107.035-.108.032-.108.03-.11.026-.111.024-.112.022-.113.018-.113.016-.115.013-.115.01-.116.008-.117.005-.118.001-.118-.001-.116-.005-.117-.007-.115-.01-.115-.014-.113-.016-.113-.018-.112-.022-.11-.024-.11-.027-.11-.03-.107-.031-.106-.035-.106-.037-.104-.04-.103-.042-.101-.044-.1-.047-.1-.05-.098-.05-.096-.055-.095-.056-.093-.058-.092-.06-.09-.063-.089-.065-.087-.066-.085-.07-.084-.07-.081-.073-.08-.074-.079-.077-.076-.078-.075-.08-.073-.082-.07-.084-.07-.085-.066-.087-.065-.089-.062-.09-.06-.092-.059-.093-.056-.095-.054-.096-.051-.098-.05-.099-.046-.1-.045-.102-.042-.103-.04-.104-.037-.105-.034-.107-.032-.107-.03-.11-.027-.109-.024-.11-.021-.113-.02-.112-.015-.114-.013-.115-.01-.115-.008-.116-.004-.117-.002-.118.002-.117.004-.117.008-.116.01-.116.013-.114.016-.114.019-.113.021-.112.024-.11.027-.11.03-.109.032-.108.034-.106.037-.105.04-.105.042-.103.045-.101.047-.1.049-.1.051-.097.054-.097.056-.094.058-.094.06-.091.063-.09.065-.09.067-.086.069-.086.07-.083.073-.082.075-.08.076-.079.078-.076.08-.075.082-.072.084-.071.085-.069.087-.067.09-.064.09-.063.091-.06.093-.059.095-.056.096-.054.098-.051.1-.05.1-.046.101-.045.103-.042.104-.04.106-.037.106-.034.108-.032.109-.03.11-.027.11-.024.112-.021.113-.019.113-.016.115-.013.115-.01.117-.007.116-.005.118-.001.118.001zm-.13 4.166H12.612l-.01.002-.012.001-.01.002h-.008l-.01.003-.007.001-.01.003-.01.002-.006.002-.008.003-.012.004-.006.002-.007.003-.01.004-.008.004-.011.006-.006.003-.005.003-.014.008-.006.004-.007.005-.008.005-.008.006-.01.007-.004.004-.01.008-.01.01-.004.002-.007.007-.008.008-.008.01-.009.01-.005.005-.005.007-.006.008-.006.008-.003.004-.007.01-.008.013-.003.006-.005.008-.004.008-.005.01-.002.004-.002.005-.005.013-.006.015-.003.008v.002l-.004.01v.005l-.002.006-.004.015-.001.009-.002.01-.002.012v.005l-.002.015v.063l.002.015v.005l.002.012.002.01.001.009.004.015.001.006.001.004.003.011.001.002.003.008.006.015.005.013.002.005.002.004.005.01.004.008.005.008.003.006.008.012.007.01.002.004.007.01.006.007.005.006.005.007.01.01.007.008.008.009.007.007.003.002.01.01.01.008.006.004.009.007.008.006.008.005.007.005.006.004.014.008.005.003.006.003.011.006.008.003.01.005.007.002.006.003.012.004.008.002.006.002.01.003.01.003.007.001.01.002.008.001.01.002h.011l.01.002h.022l.012.001h.023l.01-.001.012-.001.01-.001.01-.002.01-.001.015-.003.01-.003.016-.004.008-.003.018-.006.017-.008.016-.007.009-.005.009-.005.01-.006.013-.009.008-.005.009-.006.014-.011.01-.008.006-.006.007-.006.015-.015.008-.01.01-.01.01-.012.005-.008.007-.009.01-.014.007-.012.008-.014.006-.011.005-.01.005-.013.002-.006.006-.015.005-.013.003-.012.003-.014.003-.016.002-.01.002-.017.001-.007.001-.017V19.554l-.001-.017v-.007l-.001-.005-.002-.012-.002-.01-.001-.009-.002-.007-.003-.014-.003-.012-.001-.003-.001-.002-.003-.008-.006-.015-.002-.006-.005-.012-.005-.011-.002-.003-.004-.008-.004-.008-.004-.006-.008-.012-.003-.005-.007-.01-.006-.008-.006-.008-.01-.012-.009-.01-.008-.01-.004-.003-.011-.012-.007-.006-.007-.006-.01-.008-.004-.004-.01-.007-.008-.006-.008-.005-.006-.005-.007-.004-.01-.006-.01-.005-.008-.005-.008-.004-.008-.003-.01-.005-.006-.003-.007-.002-.012-.004-.008-.003-.005-.002-.01-.002-.01-.003-.008-.001-.008-.002-.01-.002-.01-.001-.01-.001-.011-.001h-.01l-.012-.001h-.024zM31.655 39.022a4.564 4.564 0 0 1 4.562 4.561 4.564 4.564 0 0 1-4.562 4.562 4.564 4.564 0 0 1-4.562-4.562 4.564 4.564 0 0 1 4.562-4.561z"/>
        <path fill="#26C6DA" d="M31.773 39.023l.117.005.116.007.115.01.115.013.114.016.112.019.112.021.11.025.11.026.11.03.107.032.107.035.105.037.104.04.103.041.102.045.1.047.1.049.097.051.096.054.095.056.093.059.092.06.09.063.089.064.087.067.085.069.084.07.082.073.08.075.078.076.077.079.074.08.073.082.07.083.07.086.066.087.065.088.063.09.06.092.058.094.056.094.054.097.052.097.049.1.047.1.044.101.042.103.04.105.037.105.035.106.032.108.03.109.026.11.024.11.022.112.018.113.016.114.013.114.01.116.008.116.005.117.001.117-.002.118-.004.117-.007.116-.01.116-.014.114-.016.114-.018.112-.022.112-.024.111-.027.11-.03.109-.031.107-.035.107-.037.105-.04.104-.042.103-.044.102-.047.1-.05.1-.05.097-.055.096-.056.095-.058.093-.06.092-.063.09-.065.089-.067.087-.068.085-.071.084-.073.082-.074.08-.077.078-.078.077-.08.074-.082.073-.084.07-.085.07-.087.066-.089.065-.09.063-.092.06-.093.058-.095.056-.096.054-.098.052-.099.049-.1.047-.102.044-.103.043-.104.04-.105.036-.107.035-.108.032-.108.03-.11.026-.11.024-.113.022-.112.019-.114.015-.115.014-.115.01-.116.007-.117.005-.118.001-.117-.001-.117-.005-.117-.007-.115-.01-.114-.014-.114-.015-.113-.02-.112-.02-.11-.025-.11-.027-.109-.03-.108-.031-.106-.035-.106-.037-.104-.04-.103-.042-.101-.044-.1-.047-.1-.05-.097-.05-.097-.055-.094-.056-.094-.058-.092-.06-.09-.063-.088-.065-.087-.066-.086-.07-.083-.07-.082-.073-.08-.074-.079-.077-.076-.078-.075-.08-.073-.082-.07-.084-.069-.085-.067-.087-.064-.089-.063-.09-.06-.092-.059-.093-.056-.095-.054-.096-.051-.098-.05-.099-.046-.1-.045-.102-.042-.103-.04-.104-.037-.105-.034-.107-.032-.107-.03-.11-.027-.109-.024-.11-.021-.113-.019-.112-.016-.114-.013-.114-.01-.116-.008-.116-.004-.117-.002-.118.002-.117.004-.117.008-.116.01-.116.013-.114.016-.114.019-.113.021-.111.024-.111.027-.11.03-.109.032-.107.034-.107.037-.105.04-.105.042-.103.045-.101.047-.1.049-.1.051-.097.054-.096.056-.095.059-.094.06-.091.063-.09.064-.09.067-.086.069-.086.07-.083.073-.082.075-.08.076-.079.079-.076.08-.075.082-.072.083-.071.086-.069.087-.067.088-.064.09-.063.092-.06.094-.059.094-.056.097-.054.097-.051.1-.05.1-.046.101-.045.103-.042.104-.04.106-.037.106-.034.108-.032.109-.03.11-.026.11-.025.112-.021.113-.019.114-.016.114-.013.115-.01.117-.007.117-.005.117-.001.118.001zm-.13 4.166h-.022l-.01.002-.01.001-.011.002-.01.001-.008.002-.007.001-.01.003-.01.002-.006.002-.008.003-.012.004-.006.002-.007.003-.01.005-.008.003-.008.004-.008.005-.01.005-.01.006-.006.004-.008.005-.007.005-.008.006-.009.007-.005.004-.01.008-.007.006-.006.006-.012.012-.003.003-.009.01-.009.009v.001l-.01.012-.006.007-.006.01-.007.009-.003.005-.007.011-.004.007-.005.008-.004.008-.001.003-.006.01-.005.013-.002.006-.006.014v.001l-.003.01-.003.01-.002.005-.003.014-.002.007-.001.009-.002.01-.002.012v.012l-.002.017v.045l.001.017v.007l.002.005.001.012.002.01.002.009.001.007.003.014.002.004.003.011.003.01.006.015.002.006.005.012.006.01.001.004.004.008.005.008.004.007.007.011.003.005.007.01.006.008.006.008.01.012.01.01.008.01.003.003.012.012.006.006.007.005.01.009.005.004.009.007.008.006.008.005.007.005.006.004.01.006.01.005.009.005.007.004.008.003.01.005.007.002.006.003.012.004.008.002.006.002.01.003.01.002.007.002.008.002.01.001.011.002h.01l.01.002h.022l.012.001h.023l.011-.001.011-.001.01-.001.009-.002.01-.001.01-.002.016-.004.017-.005.008-.002.017-.007.018-.007.007-.003.011-.006.012-.006.01-.006.01-.006.015-.01.008-.006.014-.011.01-.009.013-.011.007-.008.008-.008.008-.008.01-.01.01-.013.006-.008.008-.012.007-.01.008-.012.008-.015.004-.008.007-.014.008-.018.002-.007.007-.018.004-.015.005-.021.002-.009.001-.01.002-.017.002-.015v-.019l.001-.013v-.022l-.001-.01-.001-.014-.001-.005-.002-.012-.001-.01-.002-.009-.003-.015-.002-.006-.001-.004-.003-.011v-.002l-.006-.016-.003-.007-.003-.006-.005-.012-.002-.004-.005-.01-.004-.008-.004-.008-.004-.007-.008-.011-.007-.011-.002-.004-.006-.009-.006-.007-.006-.007-.005-.006-.009-.01-.008-.009-.008-.008-.007-.007-.003-.002-.01-.01-.01-.008-.006-.004-.008-.007-.009-.006-.007-.005-.007-.005-.011-.007-.01-.005-.001-.001-.01-.005-.011-.006-.008-.004-.01-.004-.006-.003-.007-.002-.011-.004-.009-.003-.008-.002-.008-.002-.007-.002-.01-.002-.01-.002-.008-.002h-.01l-.01-.002-.01-.001h-.01l-.013-.001h-.023zM51.142 24.918a4.564 4.564 0 0 1 4.562 4.561 4.564 4.564 0 0 1-4.562 4.562 4.564 4.564 0 0 1-4.562-4.562 4.564 4.564 0 0 1 4.562-4.561z"/>
        <path fill="#26C6DA" d="M51.26 24.92l.117.004.116.007.115.01.115.013.113.016.113.019.112.021.11.025.11.026.11.03.107.032.107.035.105.037.104.04.103.041.102.045.1.047.1.049.097.052.096.053.095.057.093.058.092.06.09.063.089.064.087.067.085.069.084.07.082.073.08.075.078.076.077.079.074.08.073.082.07.083.07.086.066.087.065.088.062.09.06.092.059.094.056.095.054.096.052.097.049.1.047.1.044.102.042.102.04.105.037.105.035.107.032.107.03.109.026.11.024.11.022.112.018.113.016.114.013.114.01.116.008.116.004.117.002.117-.002.118-.004.117-.008.116-.01.116-.013.114-.016.114-.019.113-.02.111-.025.111-.027.11-.03.109-.031.107-.035.107-.037.105-.04.104-.042.103-.044.102-.047.1-.05.1-.051.097-.054.096-.056.095-.058.093-.06.092-.063.09-.065.089-.067.087-.068.085-.071.084-.073.082-.074.08-.077.078-.078.077-.08.075-.082.072-.084.07-.085.07-.087.066-.089.065-.09.063-.092.06-.093.058-.095.056-.096.054-.098.052-.099.049-.1.047-.102.044-.103.042-.104.04-.105.037-.107.035-.108.032-.108.03-.11.026-.111.024-.112.022-.113.018-.113.016-.115.014-.115.01-.116.007-.117.005-.118.001-.118-.001-.117-.005-.116-.007-.115-.01-.115-.014-.113-.016-.113-.018-.112-.022-.11-.024-.11-.027-.11-.029-.107-.032-.106-.035-.106-.037-.104-.04-.103-.042-.101-.044-.1-.047-.1-.05-.098-.05-.096-.055-.095-.056-.093-.058-.092-.06-.09-.063-.089-.065-.087-.066-.085-.07-.084-.07-.081-.072-.08-.075-.079-.077-.076-.078-.075-.08-.073-.082-.07-.084-.07-.085-.066-.087-.065-.089-.062-.09-.06-.092-.059-.093-.056-.095-.054-.096-.051-.098-.05-.099-.046-.1-.045-.102-.042-.103-.04-.104-.037-.105-.034-.107-.032-.107-.03-.11-.027-.109-.024-.11-.021-.112-.019-.113-.016-.114-.013-.114-.01-.116-.008-.116-.004-.117-.002-.118.002-.117.004-.117.008-.116.01-.116.013-.114.016-.114.019-.113.021-.111.024-.111.027-.11.03-.109.032-.107.034-.107.037-.105.04-.105.042-.102.045-.102.047-.1.049-.1.051-.097.054-.096.056-.095.058-.094.06-.091.063-.09.065-.09.067-.086.069-.086.07-.083.073-.082.075-.08.076-.079.078-.076.08-.075.082-.072.084-.071.085-.069.087-.067.09-.064.09-.063.091-.06.093-.058.095-.057.096-.053.098-.052.1-.05.1-.046.101-.045.103-.042.104-.04.106-.036.106-.035.108-.032.109-.03.11-.026.11-.025.112-.021.113-.019.113-.016.115-.013.115-.01.117-.007.116-.005.118-.001.118.001zm-.13 4.165H51.109l-.012.002-.01.001-.008.001-.011.002-.01.002-.006.001-.01.003-.01.002-.006.002-.008.003-.012.004-.006.002-.007.003-.01.005-.008.003-.008.004-.008.005-.01.005-.01.006-.006.004-.007.005-.008.005-.009.006-.009.007-.005.004-.01.008-.006.006-.006.006-.012.012-.004.003-.008.01-.009.01-.01.012-.006.008-.002.003-.01.015-.008.01-.004.007-.003.006-.005.008-.004.008-.002.003-.005.01-.005.013-.002.006-.006.014v.001l-.003.01-.004.01v.005l-.004.014-.002.007-.001.009-.002.01-.002.012v.005l-.001.007-.001.017v.045l.001.017v.007l.001.005.002.012.002.01.001.009.002.007.003.014.001.004.004.011.003.01.006.015.002.006.005.012.005.01.002.003.004.01.005.007.003.006.004.006.007.01.01.016.003.003.006.008.01.012.009.01.008.01.004.003.012.012.007.006.006.006.01.008.004.004.01.007.008.006.008.005.006.005.007.004.01.006.01.005.008.005.008.004.008.003.01.005.006.002.007.003.012.004.008.003.005.001.011.003.01.003h.006l.01.003.01.002h.01l.01.002h.01l.01.002h.047l.012-.001.01-.001.01-.001.01-.002.008-.001.01-.002.017-.004.008-.002.01-.003.015-.005.016-.006.01-.005.016-.007.014-.008.01-.006.01-.006.015-.01.009-.006.014-.011.01-.008.013-.012.007-.007.012-.013.009-.01.009-.01.006-.007.005-.008.01-.012.006-.01.008-.013.008-.014.004-.009.007-.013.008-.018.002-.007.007-.018.004-.015.005-.021.001-.009.002-.01.002-.012.001-.013v-.008l.002-.018v-.025l-.001-.018v-.008l-.002-.013-.002-.012-.002-.01-.001-.009-.004-.015v-.006l-.002-.004-.003-.011-.001-.002-.006-.016-.002-.007-.003-.006-.005-.012-.002-.004-.005-.01-.004-.008-.005-.008-.003-.006-.008-.012-.007-.011-.002-.004-.007-.008-.005-.008-.006-.007-.01-.01-.004-.006-.004-.004-.012-.013-.007-.007-.003-.002-.01-.01-.01-.008-.005-.004-.01-.007-.008-.006-.008-.006-.007-.004-.01-.006-.01-.006-.005-.003-.009-.005-.005-.002-.01-.005-.011-.005-.007-.003-.009-.003-.006-.002-.008-.003-.01-.003-.009-.002-.008-.002-.01-.002-.009-.002-.01-.002-.008-.001-.01-.001-.01-.001h-.012l-.01-.001h-.025z"/>
    </g>
</svg>
